<?xml version="1.0" encoding="utf-8"?>
<!-- Generator: Adobe Illustrator 16.0.0, SVG Export Plug-In . SVG Version: 6.00 Build 0)  -->
<!DOCTYPE svg PUBLIC "-//W3C//DTD SVG 1.1//EN" "http://www.w3.org/Graphics/SVG/1.1/DTD/svg11.dtd">
<svg version="1.1" id="Layer_1" xmlns="http://www.w3.org/2000/svg" xmlns:xlink="http://www.w3.org/1999/xlink" x="0px" y="0px"
	 width="250px" height="57.5px" viewBox="0 0 250 57.5" enable-background="new 0 0 250 57.5" xml:space="preserve">
<g>
	<path d="M0.9,57.4c-1.1,0-0.9,0-0.9-1c0-1.2,0-2.5,0-3.7c0-1.4,0-2.8,0-4.1c0-0.3-0.2-1.8,0-2.1c0.1-0.1,0.9-0.1,0.9,0.1
		c0,0.3,0,0.6,0,0.9c0,1.2,0,2.5,0,3.7C0.9,53.2,0.9,55.3,0.9,57.4z"/>
	<path d="M12.1,57.4c-1,0-1-0.1-1.5-0.9c-0.7-1.1-1.5-2.1-2.2-3.2c-1.2-1.7-2.4-3.5-3.6-5.2c0,2.5,0,5,0,7.4c0,0.5,0,1,0,1.5
		c0,0.5-0.1,0.3-0.6,0.3c-0.4,0-0.3,0-0.3-0.4c0-0.5,0-1,0-1.6c0-2.8,0-5.7,0-8.5c0-0.2-0.1-0.4,0.1-0.4c0.4,0,0.7-0.1,0.9,0.2
		c0.6,0.9,1.3,1.9,1.9,2.8c1.4,2.1,2.9,4.2,4.3,6.3c0-1.8,0-3.6,0-5.4c0-1.1,0-2.2,0-3.2c0-0.2,0-0.4,0-0.6c0,0,0.9,0,0.9,0
		C12.1,50.1,12.1,53.8,12.1,57.4z"/>
	<path d="M22.8,54c-0.3,2.6-2.6,4-5.1,3.4c-2.5-0.6-3.2-3.1-3.2-5.3c0-2.2,0.4-4.7,2.9-5.5c2.5-0.8,5.1,0.7,5.3,3.3
		c-0.3,0-0.5,0-0.8,0c-0.3,0-0.3-0.9-0.5-1.2c-0.4-0.9-1.2-1.4-2.2-1.5c-2.7-0.3-3.8,2.1-3.8,4.4c0,2,0.2,4.7,2.6,5.1
		c1.1,0.2,2.4-0.1,3.1-1c0.1-0.2,0.7-1.7,0.6-1.7C22.2,54,22.5,54,22.8,54z"/>
	<path d="M33.2,52.5c0,3.1-2.5,5.9-5.8,4.7c-2.5-0.9-2.9-3.6-2.8-5.9c0-3.1,2.5-5.9,5.8-4.8C32.9,47.5,33.2,50.2,33.2,52.5z
		 M32.3,51.3c0-2.5-1.7-5-4.5-4c-2.2,0.8-2.3,3.3-2.2,5.2c0,2.5,1.8,5,4.5,4C32.2,55.8,32.3,53.3,32.3,51.3z"/>
	<path d="M39.7,52.8c-0.5,0-1,0-1.5,0c-0.2,0-1.6-0.2-1.7,0c-0.1,0.2,0,1.1,0,1.3c0,0.8,0,1.6,0,2.4c0,0.4,0.2,0.8-0.3,0.8
		c-0.5,0-0.6,0.2-0.6-0.3c0-1.2,0-2.4,0-3.6c0-0.5,0-7,0-7c1.2,0,2.4,0,3.6,0c2.3,0,4.6,1.8,3.6,4.3c-0.4,0.9-1.2,1.6-2.1,1.8
		c0.5,0.8,1,1.6,1.4,2.4c0.4,0.6,1.2,1.6,1.3,2.3c-0.3,0-0.9,0.2-1.1-0.1c-0.3-0.5-0.6-1-0.9-1.5C40.8,54.8,40.2,53.8,39.7,52.8z
		 M36.5,52.1c1.2,0,2.9,0.3,4-0.2c1.2-0.5,1.7-1.8,1.3-3c-0.4-1.2-1.6-1.5-2.8-1.5c-0.7,0-1.4,0-2.1,0c-0.6,0-0.4,0.2-0.4,0.7
		C36.5,49.4,36.5,50.7,36.5,52.1z"/>
	<path d="M46.3,52.9c0,1.2,0,2.4,0,3.7c0,0.5,0.2,0.8-0.4,0.8c-0.5,0-0.6,0.1-0.6-0.4c0-2.8,0-5.6,0-8.4c0-0.2-0.1-2.1,0.1-2.1
		c1.2,0,2.4,0,3.7,0c2.4,0,4.2,1.6,3.7,4.1c-0.5,2.2-2.7,2.3-4.5,2.3C47.6,52.9,47,52.9,46.3,52.9z M46.3,52.2c1.3,0,3,0.3,4.3-0.2
		c1.3-0.5,1.7-2.1,1.1-3.3c-0.5-1-1.6-1.3-2.6-1.3c-0.8,0-1.6,0-2.4,0c-0.6,0-0.4,0.2-0.4,0.7C46.3,49.4,46.3,50.8,46.3,52.2z"/>
	<path d="M63.1,52.5c0,3.1-2.5,5.9-5.8,4.7c-2.5-0.9-2.9-3.6-2.8-5.9c0-3.1,2.5-5.9,5.8-4.8C62.9,47.5,63.1,50.2,63.1,52.5z
		 M62.2,51.3c0-2.5-1.7-5-4.5-4c-2.2,0.8-2.3,3.3-2.2,5.2c0,2.5,1.8,5,4.5,4C62.2,55.8,62.2,53.3,62.2,51.3z"/>
	<path d="M69.6,52.8c-0.5,0-1,0-1.5,0c-0.2,0-1.6-0.2-1.7,0c-0.1,0.2,0,1.1,0,1.3c0,0.8,0,1.6,0,2.4c0,0.4,0.2,0.8-0.3,0.8
		c-0.5,0-0.6,0.2-0.6-0.3c0-1.2,0-2.4,0-3.6c0-0.5,0-7,0-7c1.2,0,2.4,0,3.6,0c2.3,0,4.6,1.8,3.6,4.3c-0.4,0.9-1.2,1.6-2.1,1.8
		c0.5,0.8,1,1.6,1.4,2.4c0.4,0.6,1.2,1.6,1.3,2.3c-0.3,0-0.9,0.2-1.1-0.1c-0.3-0.5-0.6-1-0.9-1.5C70.7,54.8,70.2,53.8,69.6,52.8z
		 M66.4,52.1c1.2,0,2.9,0.3,4-0.2c1.2-0.5,1.7-1.8,1.3-3c-0.4-1.2-1.6-1.5-2.8-1.5c-0.7,0-1.4,0-2.1,0c-0.6,0-0.4,0.2-0.4,0.7
		C66.4,49.4,66.4,50.7,66.4,52.1z"/>
	<path d="M81.3,54.3c-1.6,0-3.3,0-4.9,0c-0.3,0-0.7,1.7-0.8,2c-0.1,0.4-0.3,0.7-0.4,1.1c0,0.1-0.9,0-1,0c0.7-1.9,1.4-3.7,2.2-5.6
		c0.5-1.3,1-2.5,1.5-3.8c0.2-0.5,0.3-1.4,0.9-1.4c0.3,0,0.5-0.1,0.6,0.2c0.1,0.4,0.3,0.7,0.4,1.1c0.5,1.3,1,2.5,1.4,3.8
		c0.7,1.9,1.5,3.9,2.2,5.8c-0.9,0-0.9,0.1-1.2-0.7C81.9,55.9,81.6,55.1,81.3,54.3z M76.6,53.5c1.5,0,3,0,4.4,0
		c-0.7-2-1.5-3.9-2.2-5.9C78,49.6,77.3,51.6,76.6,53.5z"/>
	<path d="M85,57.4c0-2.1,0-4.3,0-6.4c0-1.2,0-2.5,0-3.7c0-0.2,0-0.5,0-0.7c0,0,1.1,0,1.2,0c1.6,0,3.2-0.2,4.6,0.8
		c1.8,1.2,2.1,3.2,2,5.2c0,2.6-1.8,4.8-4.4,4.9C87.3,57.4,86.1,57.4,85,57.4z M86,47.3c0,1.8,0,3.6,0,5.4c0,1,0,2.1,0,3.1
		c0,0.9,0.1,0.7,1,0.7c1.4,0,2.8,0,3.8-1.1c1-1.1,1.1-2.6,1.1-4c0-1.9-1-3.6-2.9-4C88,47.2,86.9,47.3,86,47.3z"/>
	<path d="M103.3,52.5c0,3.1-2.5,5.9-5.8,4.7c-2.5-0.9-2.8-3.6-2.8-5.9c0-3.1,2.2-5.8,5.5-4.9C103,47.3,103.3,50.1,103.3,52.5z
		 M102.4,51.3c0-2.5-1.7-5-4.5-4c-2.2,0.8-2.3,3.3-2.2,5.2c0,2.5,1.8,5,4.5,4C102.4,55.8,102.4,53.3,102.4,51.3z"/>
	<path d="M109.8,52.8c-0.5,0-1,0-1.5,0c-0.2,0-1.6-0.2-1.7,0c-0.1,0.2,0,1.1,0,1.3c0,0.8,0,1.6,0,2.4c0,0.4,0.2,0.8-0.3,0.8
		c-0.5,0-0.6,0.2-0.6-0.3c0-1.2,0-2.4,0-3.6c0-0.5,0-7,0-7c1.2,0,2.4,0,3.6,0c2.3,0,4.6,1.8,3.6,4.3c-0.4,0.9-1.2,1.6-2.1,1.8
		c0.5,0.8,1,1.6,1.4,2.4c0.4,0.6,1.2,1.6,1.3,2.3c-0.3,0-0.9,0.2-1.1-0.1c-0.3-0.5-0.6-1-0.9-1.5C111,54.8,110.4,53.8,109.8,52.8z
		 M106.6,52.1c1.2,0,2.9,0.3,4-0.2c1.2-0.5,1.7-1.8,1.3-3c-0.4-1.2-1.6-1.5-2.8-1.5c-0.7,0-1.4,0-2.1,0c-0.6,0-0.4,0.2-0.4,0.7
		C106.6,49.4,106.6,50.7,106.6,52.1z"/>
	<path d="M121.5,54.3c-1.6,0-3.3,0-4.9,0c-0.3,0-0.7,1.7-0.8,2c-0.1,0.4-0.3,0.7-0.4,1.1c0,0.1-0.9,0-1,0c0.7-1.9,1.4-3.7,2.2-5.6
		c0.5-1.3,1-2.5,1.5-3.8c0.2-0.5,0.3-1.4,0.9-1.4c0.3,0,0.5-0.1,0.6,0.2c0.1,0.4,0.3,0.7,0.4,1.1c0.5,1.3,1,2.5,1.4,3.8
		c0.7,1.9,1.5,3.9,2.2,5.8c-0.9,0-0.9,0.1-1.2-0.7C122.1,55.9,121.8,55.1,121.5,54.3z M116.8,53.5c1.5,0,3,0,4.4,0
		c-0.7-2-1.5-3.9-2.2-5.9C118.3,49.6,117.5,51.6,116.8,53.5z"/>
	<path d="M130.7,51.4c-0.9-1-1.7-2.4-1-3.8c0.6-1.3,2.4-1.7,3.6-1c1.2,0.7,1.3,2.2,0.5,3.2c-0.5,0.6-1.3,1.1-1.9,1.6
		c1,1.2,2,2.3,3,3.5c0.4-0.6,0.6-1.4,0.7-2.1c0-0.5,0.4-0.3,0.9-0.3c0,0.7-0.1,1.4-0.4,2.1c-0.1,0.3-0.7,0.9-0.5,1.1
		c0.5,0.5,0.9,1.1,1.4,1.6c-0.2,0-1,0.1-1.1,0c-0.3-0.4-0.6-0.7-0.9-1.1c-1.5,1.4-4.5,1.9-5.9,0.1C127.5,54.5,129.1,52.5,130.7,51.4
		z M131.9,56.8c0.9,0,1.9-0.4,2.5-1.1c0-0.1-0.4-0.5-0.5-0.5c-0.7-0.8-1.5-1.7-2.2-2.5c-0.1-0.2-0.3-0.3-0.4-0.5
		c-0.2-0.2-1.2,1-1.4,1.1C128.6,54.9,129.9,56.8,131.9,56.8z M130.3,48.8c0,0.4,0.7,2.4,1.1,2.1c0.5-0.4,1.1-0.7,1.5-1.2
		c0.7-0.7,0.7-2-0.4-2.4C131.4,46.8,130.3,47.6,130.3,48.8C130.3,49.4,130.3,48.3,130.3,48.8z"/>
	<path d="M150.2,54c-0.3,2.6-2.6,4-5.1,3.4c-2.5-0.6-3.2-3.1-3.2-5.3c0-2.2,0.4-4.7,2.9-5.5c2.6-0.8,5.1,0.7,5.3,3.3
		c-0.3,0-0.5,0-0.8,0c-0.3,0-0.3-0.9-0.5-1.2c-0.4-0.9-1.2-1.4-2.2-1.5c-2.7-0.3-3.8,2.1-3.8,4.4c0,2,0.2,4.7,2.6,5.1
		c1.1,0.2,2.4-0.1,3.1-1c0.1-0.2,0.7-1.7,0.6-1.7C149.6,54,149.9,54,150.2,54z"/>
	<path d="M160.6,52.5c0,3.1-2.5,5.9-5.8,4.7c-2.5-0.9-2.9-3.6-2.8-5.9c0-3.1,2.5-5.9,5.8-4.8C160.3,47.5,160.6,50.2,160.6,52.5z
		 M159.7,51.3c0-2.5-1.7-5-4.5-4c-2.2,0.7-2.3,3.3-2.2,5.2c0,2.5,1.8,5,4.5,4C159.7,55.8,159.7,53.3,159.7,51.3z"/>
	<path d="M171.2,57.4c-1,0-0.9,0-1.5-0.8c-0.7-1-1.4-2.1-2.1-3.1c-1.2-1.8-2.4-3.6-3.7-5.4c0,2.5,0,5,0,7.4c0,0.5,0,1,0,1.5
		c0,0.5-0.1,0.3-0.6,0.3c-0.4,0-0.3,0-0.3-0.4c0-0.5,0-1,0-1.6c0-2.8,0-5.7,0-8.5c0-0.2-0.1-0.4,0.1-0.4c0.4,0,0.7-0.1,0.9,0.2
		c0.6,0.9,1.3,1.9,1.9,2.8c1.4,2.1,2.9,4.2,4.3,6.3c0-1.8,0-3.6,0-5.4c0-1.1,0-2.2,0-3.2c0-0.2,0-0.4,0-0.6c0,0,0.9,0,0.9,0
		C171.2,50.1,171.2,53.8,171.2,57.4z"/>
	<path d="M180.2,54.7c0-3.5-7-1.6-6.6-5.8c0.4-3.8,7.5-3.2,7.5,0.7c-0.3,0-0.5,0-0.8,0c-0.2,0-0.3-1.1-0.5-1.4
		c-0.7-1.1-2.3-1.3-3.4-1c-1.2,0.3-2.2,1.4-1.6,2.7c0.6,1.2,2.5,1.4,3.7,1.8c1.2,0.4,2.4,1,2.7,2.3c0.3,1.4-0.4,2.5-1.7,3.1
		c-2.3,1-6.2,0.1-6.2-2.9c0.4,0,0.9-0.2,0.9,0.3c0.1,0.9,0.7,1.6,1.6,1.9C177.3,57,180.2,56.8,180.2,54.7z"/>
	<path d="M190.7,47.3c-1.2,0-2.4,0-3.6,0c-0.4,0-0.2,1.5-0.2,1.9c0,2.7,0,5.4,0,8.1c0,0.2-0.8,0.2-0.9,0.1c-0.1-0.1,0-0.7,0-0.8
		c0-1.4,0-2.8,0-4.3c0-1.4,0-2.8,0-4.3c0-0.3,0-0.5,0-0.8c0,0-1.3,0-1.4,0c-0.7,0-1.3,0-2,0c-0.1,0-0.4,0-0.4,0c0,0,0-0.7,0-0.8
		c0.1-0.1,0.6,0,0.7,0c0.6,0,1.2,0,1.8,0c1.5,0,2.9,0,4.4,0c0.5,0,1,0,1.4,0C190.8,46.5,190.7,46.9,190.7,47.3z"/>
	<path d="M196.6,52.8c-0.5,0-1,0-1.5,0c-0.2,0-1.6-0.2-1.7,0c-0.1,0.2,0,1.1,0,1.3c0,0.8,0,1.6,0,2.4c0,0.4,0.2,0.8-0.3,0.8
		c-0.5,0-0.6,0.2-0.6-0.3c0-1.2,0-2.4,0-3.6c0-0.5,0-7,0-7c1.2,0,2.4,0,3.6,0c2.3,0,4.6,1.8,3.6,4.3c-0.4,0.9-1.2,1.6-2.1,1.8
		c0.5,0.8,1,1.6,1.4,2.4c0.4,0.6,1.2,1.6,1.3,2.3c-0.3,0-0.9,0.2-1.1-0.1c-0.3-0.5-0.6-1-0.9-1.5C197.7,54.8,197.1,53.8,196.6,52.8z
		 M193.4,52.1c1.2,0,2.9,0.3,4.1-0.2c1.2-0.5,1.7-1.8,1.3-3c-0.4-1.2-1.6-1.5-2.8-1.5c-0.7,0-1.4,0-2.1,0c-0.6,0-0.4,0.2-0.4,0.7
		C193.4,49.4,193.4,50.7,193.4,52.1z"/>
	<path d="M209.9,46.5c0,2.4,0,4.8,0,7.2c0,2.2-1.4,3.7-3.6,3.8c-2.3,0.1-4.2-1.2-4.2-3.6c0-2.4,0-4.9,0-7.3c0-0.2,0.9,0,0.9,0
		c0,0.4,0,0.8,0,1.3c0,1.5,0,3.1,0,4.6c0,1.6-0.1,3.5,1.7,4.1c1.3,0.4,3,0.2,3.7-1c0.4-0.6,0.4-1.4,0.4-2.1c0-1.6,0-3.2,0-4.8
		c0-0.6,0-1.3,0-1.9C209,46.3,209.5,46.5,209.9,46.5z"/>
	<path d="M220,47.3c-1.2,0-2.4,0-3.6,0c-0.4,0-0.2,1.5-0.2,1.9c0,2.7,0,5.4,0,8.1c0,0.3-0.7,0.1-0.9,0.1c-0.1,0,0-0.6,0-0.7
		c0-1.4,0-2.8,0-4.2c0-1.4,0-2.9,0-4.3c0-0.3,0-0.6,0-0.9c0,0-1.1,0-1.2,0c-0.7,0-1.3,0-2,0c-0.7,0-0.6,0-0.6-0.7
		c0-0.1,2.3-0.1,2.5-0.1c1.5,0,2.9,0,4.4,0c0.5,0,1,0,1.4,0C220.2,46.5,220,46.9,220,47.3z"/>
	<path d="M229.7,52.5c0,3.1-2.5,5.9-5.8,4.7c-2.5-0.9-2.9-3.6-2.8-5.9c0-3.1,2.5-5.9,5.8-4.8C229.5,47.5,229.7,50.2,229.7,52.5z
		 M228.8,51.3c0-2.5-1.7-5-4.5-4c-2.2,0.8-2.3,3.3-2.2,5.2c0,2.5,1.8,5,4.5,4C228.8,55.8,228.8,53.3,228.8,51.3z"/>
	<path d="M236.2,52.8c-0.5,0-1,0-1.5,0c-0.2,0-1.6-0.2-1.7,0c-0.1,0.2,0,1.1,0,1.3c0,0.8,0,1.6,0,2.4c0,0.4,0.2,0.8-0.3,0.8
		c-0.5,0-0.6,0.2-0.6-0.3c0-1.2,0-2.4,0-3.6c0-0.5,0-7,0-7c1.2,0,2.4,0,3.6,0c2.3,0,4.6,1.8,3.6,4.3c-0.4,0.9-1.2,1.6-2.1,1.8
		c0.5,0.8,1,1.6,1.4,2.4c0.4,0.6,1.2,1.6,1.3,2.3c-0.3,0-0.9,0.2-1.1-0.1c-0.3-0.5-0.6-1-0.9-1.5C237.3,54.8,236.8,53.8,236.2,52.8z
		 M233,52.1c1.2,0,2.9,0.3,4.1-0.2c1.2-0.5,1.7-1.8,1.3-3c-0.4-1.2-1.6-1.5-2.8-1.5c-0.7,0-1.4,0-2.1,0c-0.6,0-0.4,0.2-0.4,0.7
		C233,49.4,233,50.7,233,52.1z"/>
	<path d="M247.9,54.3c-1.6,0-3.3,0-4.9,0c-0.3,0-0.7,1.7-0.8,2c-0.1,0.4-0.3,0.7-0.4,1.1c0,0.1-0.9,0-1,0c0.7-1.9,1.4-3.7,2.2-5.6
		c0.5-1.3,1-2.5,1.5-3.8c0.2-0.5,0.3-1.4,0.9-1.4c0.3,0,0.5-0.1,0.6,0.2c0.1,0.4,0.3,0.7,0.4,1.1c0.5,1.3,1,2.5,1.4,3.8
		c0.7,1.9,1.5,3.9,2.2,5.8c-0.9,0-0.9,0.1-1.2-0.7C248.5,55.9,248.2,55.1,247.9,54.3z M243.2,53.5c1.5,0,3,0,4.4,0
		c-0.7-2-1.5-3.9-2.2-5.9C244.6,49.6,243.9,51.6,243.2,53.5z"/>
</g>
<g>
	<g>
		<path d="M52.9,26.4c-1.2,0-2.4,0-3.6,0c-0.5,0-1.8-0.3-1.8,0.3c0,2.6,0,5.2,0,7.8c0,1.5,0,2.9,0,4.4c0,0.3,0.2,1.7,0,1.9
			c-0.1,0.1-0.6,0-0.7,0c-0.6,0-1.3,0-1.9,0c-1.6,0-3.2,0-4.8,0c-0.6,0-1.2,0-1.8,0c-0.1,0-0.7,0.1-0.8,0c-0.1-0.1,0-0.7,0-0.8
			c0-1.8,0-3.6,0-5.4c0-6.2,0-12.4,0-18.6c0-5,0-9.9,0-14.9c0-0.4,0-0.7,0-1.1c0-0.1,0.9,0,1,0c2.9,0,5.7,0,8.6,0
			C52.8,0,59-0.6,64.1,2.3c3.9,2.3,5.6,6.3,5.4,10.7c-0.1,2.3-0.6,4.6-1.9,6.6c-1.3,1.9-3.2,3.3-5.3,4.3c2.3,4.4,4.6,8.8,6.9,13.2
			c0.5,0.9,1,1.8,1.4,2.7c0.1,0.2,0.6,1,0.1,1c-2.7,0-5.4,0-8.1,0c-0.7,0-2.2,0.4-2.6-0.3c-0.8-1.5-1.6-3.1-2.3-4.6
			C56.1,32.7,54.5,29.5,52.9,26.4z M47.5,18.8c2.3,0,4.7,0.1,7,0c2.3-0.2,4.3-1.4,4.9-3.7c0.5-2.2,0.1-5.1-1.8-6.5
			c-1.4-1-3.1-1-4.7-1c-1.5,0-3,0-4.5,0c-0.9,0-0.8-0.1-0.8,0.8c0,1.4,0,2.7,0,4.1C47.5,14.6,47.5,16.7,47.5,18.8z"/>
		<path d="M101.3,23.5c-4.9,0-9.8,0-14.7,0c-0.4,0-1-0.2-1,0.2c0,1.2,0,2.4,0,3.6c0,1.5,0,3,0,4.5c0,0.3-0.2,1.3,0.2,1.3
			c5.3,0,10.6,0,15.9,0c0.8,0,1.6,0,2.3,0c0.3,0,0.1,1.5,0.1,1.8c0,1.5,0,3.1,0,4.6c0,0.4,0.2,1.1-0.2,1.1c-9.4,0-18.9,0-28.3,0
			c-0.1,0,0-26.7,0-28.8c0-4,0-7.9,0-11.9c0-0.3,2.3-0.1,2.6-0.1c2.7,0,5.5,0,8.2,0c5.6,0,11.1,0,16.7,0c0.1,0,1-0.1,1.1,0
			c0.1,0.1,0,0.7,0,0.9c0,0.7,0,1.5,0,2.2c0,1.4,0,2.8,0,4.2c0,0.5-0.4,0.3-0.8,0.3c-5.5,0-11,0-16.5,0c-0.1,0-1.2-0.1-1.2,0.1
			c0,1.1,0,2.2,0,3.4c0,1.5,0,2.9,0,4.4c0,0.7-0.2,0.8,0.5,0.8c4.5,0,8.9,0,13.4,0c0.6,0,1.2,0,1.7,0c0.2,0,0.1,1.2,0.1,1.3
			C101.3,19.5,101.3,21.5,101.3,23.5z"/>
		<path d="M118.2,26.9c0,4.6,0,9.2,0,13.8c0,0.1-6.1,0.1-6.7,0.1c-1.1,0-2.2,0-3.2,0c-0.2,0-0.1-0.4-0.1-0.5c0-10.8,0-21.7,0-32.5
			c0-2.1,0-4.1,0-6.2c0-0.5,0-0.9,0-1.4c0-0.3,0.4-0.1,0.7-0.1c5.2,0,10.4,0,15.6,0c4.4,0,9,1,12.3,4.1c3.8,3.6,5.2,9.5,3.3,14.4
			c-1.8,4.7-6.4,7.3-11.1,8.1c-3.2,0.5-6.6,0.3-9.9,0.3C118.7,26.9,118.5,26.9,118.2,26.9z M118.2,19.4c2.2,0,4.4,0,6.5,0
			c2.3,0,4.7-0.8,5.6-3.2c0.8-2.2,0.4-5.1-1.2-6.9c-2.2-2.4-6.4-1.7-9.3-1.7c-0.5,0-1.6-0.3-1.6,0.3c0,1.2,0,2.3,0,3.5
			C118.2,14.1,118.2,16.7,118.2,19.4z"/>
		<path d="M164.6,33.2c-4.6,0-9.1,0-13.7,0c-0.2,0-0.7,2.1-0.8,2.3c-0.5,1.5-0.9,2.9-1.4,4.4c-0.3,0.8-0.1,0.9-0.9,0.9
			c-1.3,0-2.7,0-4,0c-2,0-4,0-6,0c3.4-9,6.7-18.1,10.1-27.1c1.6-4.3,3.2-8.6,4.8-12.9c0.1-0.3,0.2-0.5,0.3-0.8c0-0.1,2.1,0,2.3,0
			c1.6,0,3.2,0,4.8,0c0.2,0,2.3-0.1,2.3,0c3.4,9.2,6.9,18.3,10.3,27.5c1.7,4.4,3.3,8.9,5,13.3c-3.4,0-6.8,0-10.2,0
			c-0.3,0-0.5,0.1-0.6-0.2c-0.3-0.8-0.5-1.6-0.8-2.5C165.7,36.4,165.2,34.8,164.6,33.2z M153.3,25.6c3,0,5.9,0,8.9,0
			c-1.5-4.7-3-9.4-4.5-14.1C156.3,16.1,154.8,20.9,153.3,25.6z"/>
		<path d="M196.2,26.4c-1.2,0-2.4,0-3.6,0c-0.5,0-1.8-0.3-1.8,0.3c0,2.6,0,5.2,0,7.8c0,1.5,0,2.9,0,4.4c0,0.3,0.2,1.7,0,1.9
			c-0.1,0.1-0.6,0-0.7,0c-0.6,0-1.3,0-1.9,0c-1.6,0-3.2,0-4.8,0c-0.6,0-1.2,0-1.8,0c-0.1,0-0.7,0.1-0.8,0c-0.1-0.1,0-0.7,0-0.8
			c0-1.8,0-3.6,0-5.4c0-6.2,0-12.4,0-18.6c0-5,0-9.9,0-14.9c0-0.4,0-0.7,0-1.1c0-0.1,0.9,0,1,0c2.9,0,5.7,0,8.6,0
			c5.6,0,11.9-0.6,16.9,2.3c3.9,2.3,5.6,6.3,5.4,10.7c-0.1,2.3-0.6,4.6-1.9,6.6c-1.3,1.9-3.2,3.3-5.3,4.3c2.3,4.4,4.6,8.8,6.9,13.2
			c0.5,0.9,1,1.8,1.4,2.7c0.1,0.2,0.6,1,0.1,1c-2.7,0-5.4,0-8.1,0c-0.7,0-2.2,0.4-2.6-0.3c-0.8-1.5-1.6-3.1-2.3-4.6
			C199.4,32.7,197.8,29.5,196.2,26.4z M190.8,18.8c2.3,0,4.7,0.1,7,0c2.3-0.2,4.3-1.4,4.9-3.7c0.5-2.2,0.1-5.1-1.8-6.5
			c-1.4-1-3.1-1-4.7-1c-1.5,0-3,0-4.5,0c-0.9,0-0.8-0.1-0.8,0.8c0,1.4,0,2.7,0,4.1C190.8,14.6,190.8,16.7,190.8,18.8z"/>
		<path d="M250,7.6c-1.2,0-12.4-0.1-12.4,0.1c0,4.3,0,8.6,0,12.9c0,5.9,0,11.8,0,17.6c0,0.7,0,1.4,0,2.1c0,0.3,0.1,0.5-0.2,0.5
			c-2.8,0-5.5,0-8.3,0c-0.2,0-1.5,0.1-1.5-0.1c0-0.5,0-1,0-1.4c0-2.3,0-4.6,0-6.9c0-6.3,0-12.6,0-18.8c0-1.8,0-3.6,0-5.5
			c0-0.4,0.1-0.4-0.3-0.4c-1.1,0-2.2,0-3.3,0c-2.8,0-5.5,0-8.3,0c-0.6,0-0.3-0.9-0.3-1.5c0-1.6,0-3.1,0-4.7c0-0.2-0.2-1.5,0.1-1.5
			c0.5,0,1,0,1.5,0c2.3,0,4.6,0,6.9,0c6.3,0,12.7,0,19,0c2.3,0,4.7,0,7,0c0.4,0,0.1,2.4,0.1,2.7C250,4.3,250,6,250,7.6z"/>
	</g>
	<path fill="#517936" d="M0,40.8c2.5,0,4.9,0,7.4,0c0.6,0,1.2,0,1.8,0c0.1,0,0.7,0.1,0.8,0c0.1-0.1,0-0.9,0-1.1c0-5.6,0-11.2,0-16.7
		c0-3.6,0-7.1,0-10.7c-2.1,1-4.3,2.1-6.4,3.1c-1.1,0.5-2.2,1.1-3.3,1.6C-0.1,17.2,0,17.3,0,17.7c0,5.5,0,11,0,16.5
		C0,36.4,0,38.6,0,40.8z"/>
	<path fill="#517936" d="M12.5,40.8c2.5,0,4.9,0,7.4,0c0.6,0,1.2,0,1.8,0c0.1,0,0.7,0.1,0.8,0c0.1-0.1,0-0.8,0-0.9
		c0-5.1,0-10.3,0-15.4c0-6.1,0-12.2,0-18.3c-2.1,1-4.3,2.1-6.4,3.1c-1.1,0.5-2.2,1.1-3.3,1.6c-0.4,0.2-0.3,0.2-0.3,0.6
		c0,5.1,0,10.2,0,15.2C12.5,31.4,12.5,36.1,12.5,40.8z"/>
	<path fill="#517936" d="M25,40.8c2.5,0,4.9,0,7.4,0c0.6,0,1.2,0,1.8,0c0.1,0,0.7,0.1,0.8,0c0.1-0.1,0-0.7,0-0.8c0-4.7,0-9.4,0-14.1
		c0-8.6,0-17.3,0-25.9c-2.1,1-4.3,2.1-6.4,3.1c-1.1,0.5-2.2,1.1-3.3,1.6C25,4.9,25,4.9,25,5.3c0,4.6,0,9.2,0,13.8
		C25,26.3,25,33.5,25,40.8z"/>
</g>
</svg>
